<svg width="74" height="75" viewBox="0 0 74 75" fill="none" xmlns="http://www.w3.org/2000/svg">
<path d="M73.6872 46.1235C72.6014 54.7527 68.9048 62.6874 62.9977 69.071C62.9932 69.075 62.9892 69.0795 62.9853 69.084L59.23 73.0923C58.6608 73.6998 57.8907 74.007 57.1194 74.007C56.4108 74.007 55.701 73.7478 55.1432 73.2256C53.9784 72.1336 53.9185 70.3042 55.0105 69.1388L58.7602 65.1367C63.8384 59.6463 67.0167 52.8223 67.9506 45.402C68.1499 43.8182 69.5954 42.6951 71.1797 42.8944C72.764 43.0938 73.8865 44.5398 73.6872 46.1235ZM62.4472 43.1124L62.4619 15.994C62.4619 15.9652 62.4613 15.9364 62.4607 15.9076C62.4382 15.1442 62.7097 14.4266 63.2241 13.8863C63.7447 13.3403 64.4612 13.0275 65.2415 13.0043C66.0275 12.9817 66.7688 13.2544 67.3284 13.7728C67.8704 14.2747 68.1844 14.959 68.2148 15.7032L68.2182 31.3642C68.2182 32.9604 69.5129 34.2546 71.1091 34.2546H71.1097C72.7064 34.2546 74.0006 32.9599 74 31.3631L73.9972 15.653C73.9972 15.6253 73.9966 15.5971 73.9955 15.5688C73.9277 13.2482 72.9554 11.1038 71.2582 9.5313C69.5795 7.97632 67.3826 7.15705 65.0727 7.2248C62.76 7.29256 60.6172 8.24113 59.0391 9.89661C57.461 11.5521 56.6242 13.7287 56.6795 16.0301L56.6694 35.4685C53.5075 34.3647 49.8459 35.1512 47.4248 37.7677L37.1028 49.0054L26.6031 37.7597C24.1853 35.1467 20.5203 34.3624 17.3568 35.4719L17.3466 16.0301C17.4019 13.7169 16.5228 11.5261 14.8684 9.85652C13.2536 8.22702 11.0967 7.292 8.79477 7.2248C6.47246 7.15649 4.29018 7.98818 2.64543 9.56518C1.01761 11.1258 0.0837234 13.2584 0.0159684 15.5688C0.0148392 15.5971 0.0148392 15.6253 0.0148392 15.6535L0.0103221 40.0555C-0.226821 50.9432 3.62901 61.247 10.8698 69.071C10.8737 69.0756 10.8777 69.0795 10.8816 69.084L14.6375 73.0923C15.2067 73.6998 15.9762 74.007 16.7475 74.007C17.4561 74.007 18.1664 73.7478 18.7237 73.2256C19.8891 72.1341 19.9484 70.3042 18.857 69.1394L15.1073 65.1373C8.88793 58.4137 5.57979 49.5418 5.79152 40.1526C5.79209 40.1312 5.79265 40.1097 5.79265 40.0883L5.79661 15.7032C5.82766 14.9325 6.12861 14.2358 6.64693 13.7395C7.01281 13.3883 7.65253 12.9744 8.62538 13.0049C9.42546 13.028 10.2041 13.364 10.7614 13.9269C11.3017 14.4718 11.5874 15.1759 11.566 15.9082C11.5648 15.937 11.5643 15.9658 11.5643 15.9946L11.5789 43.2536C11.5631 43.5901 11.5682 43.9277 11.5919 44.2637C11.5936 44.2879 11.5947 44.3128 11.5976 44.3371C11.7444 46.2139 12.497 48.0563 13.8719 49.5418C13.877 49.5469 13.8815 49.5519 13.886 49.557L23.7669 60.085C24.8601 61.2493 26.6894 61.3069 27.8537 60.2143C29.018 59.1218 29.0761 57.2918 27.983 56.1276L18.1105 45.6092C17.6605 45.1202 17.4138 44.5161 17.3613 43.9V43.4122C17.4183 42.7166 17.7226 42.0396 18.2737 41.5292C19.4442 40.4468 21.2769 40.5174 22.3678 41.6969L37.1435 57.5222C38.3529 58.8299 38.9813 60.5294 38.913 62.3091C38.8441 64.0882 38.0864 65.7347 36.7787 66.9447L34.5643 68.9943C33.3921 70.0789 33.3215 71.9077 34.4062 73.0799C34.9759 73.6953 35.7511 74.0076 36.5286 74.0076C37.231 74.0076 37.9357 73.7529 38.4918 73.238L40.7068 71.1878C45.745 66.5257 46.0499 58.6334 41.3787 53.5862L41.0603 53.2452L51.6758 41.6878C52.7588 40.5179 54.5916 40.4468 55.7615 41.5297C56.2685 41.9984 56.583 42.6195 56.6654 43.297L56.6649 44C56.5932 44.6007 56.3385 45.162 55.9196 45.6148C55.9077 45.6284 55.8953 45.6413 55.8834 45.6549L49.5918 52.7133C48.5297 53.9052 48.6348 55.7329 49.8267 56.7955C50.3778 57.2867 51.0649 57.5278 51.7492 57.5278C52.5448 57.5278 53.3375 57.2015 53.9084 56.5606L60.183 49.5203C61.843 47.7147 62.5883 45.3878 62.4472 43.1124ZM22.4062 21.0993V10.1151C22.4062 7.9001 23.6416 5.91544 25.6302 4.93581L34.4474 0.591586C36.0492 -0.197195 37.9622 -0.197195 39.564 0.591586L48.3812 4.93581C50.3699 5.91544 51.6058 7.9001 51.6058 10.1151V21.0988C51.6058 23.3132 50.3704 25.2979 48.3818 26.2781L39.5646 30.6229C38.7634 31.0176 37.8848 31.2152 37.0057 31.2152C36.1266 31.2152 35.248 31.0176 34.4468 30.6229L25.6302 26.2781C23.6416 25.2985 22.4062 23.3138 22.4062 21.0993ZM28.188 21.0993L34.1148 24.0156V15.9155L28.188 13.0828V21.0993ZM45.8257 21.092L45.824 13.0867L39.8972 15.9161V24.0111L45.8257 21.092ZM31.7412 8.37212L37.0063 10.8887L42.2793 8.37156L37.0091 5.7788L31.7412 8.37212Z" fill="url(#paint0_linear_4_170)"/>
<defs>
<linearGradient id="paint0_linear_4_170" x1="1.02813e-05" y1="37.0033" x2="74.0002" y2="37.0033" gradientUnits="userSpaceOnUse">
<stop stop-color="#00F2FE"/>
<stop offset="0.0208" stop-color="#03EFFE"/>
<stop offset="0.2931" stop-color="#24D2FE"/>
<stop offset="0.5538" stop-color="#3CBDFE"/>
<stop offset="0.7956" stop-color="#4AB0FE"/>
<stop offset="1" stop-color="#4FACFE"/>
</linearGradient>
</defs>
</svg>
