<svg width="74" height="73" viewBox="0 0 74 73" fill="none" xmlns="http://www.w3.org/2000/svg">
<path fill-rule="evenodd" clip-rule="evenodd" d="M47.5166 1.71222L46.7053 5.86788L52.6028 10.1525L60.0448 8.45381L60.8519 4.29815C60.9338 3.88017 60.6552 3.46624 60.2374 3.38833L48.426 1.09739C48.0083 1.01559 47.5985 1.29424 47.5166 1.71222Z" fill="#C7C5CA"/>
<path fill-rule="evenodd" clip-rule="evenodd" d="M42.1649 5.02919C39.457 4.43503 36.7203 5.4554 35.8558 8.13553C36.3351 8.56579 36.9374 40.1046 36.9374 40.1046L66.9871 34.0473L69.2444 14.844C69.5926 11.9097 67.3845 9.84429 64.5782 9.37313C63.8614 9.21747 62.0342 8.84864 60.0431 8.45523C57.2901 7.90602 54.2258 7.31187 53.3776 7.15621C52.5337 6.98408 49.4652 6.38992 46.7041 5.86948C44.713 5.49226 42.8858 5.15204 42.1649 5.02919Z" fill="#ECEAED"/>
<path fill-rule="evenodd" clip-rule="evenodd" d="M36.9384 9.88087C36.9384 9.1883 36.6351 8.56538 36.1599 8.13512C35.7421 7.75805 35.1889 7.52869 34.5909 7.52869H32.903H31.2152C29.9246 7.52869 28.8677 8.58591 28.8677 9.88087V12.229L32.903 13.5857L36.9384 12.229V9.88087Z" fill="#C7C5CA"/>
<path fill-rule="evenodd" clip-rule="evenodd" d="M36.9987 71.3242L41.0177 54.8482L36.9987 34.0476L4.29016 44.8749V70.6399C4.29016 71.0127 4.59743 71.3242 4.97437 71.3242H36.9987Z" fill="#4FDAE1"/>
<path fill-rule="evenodd" clip-rule="evenodd" d="M40.5472 34.0476V16.1187V13.7828C40.5472 12.9264 39.8467 12.2297 38.9945 12.2297H36.6348H28.5682H26.8108C25.9586 12.2297 25.2581 12.9264 25.2581 13.7828V34.0476H35.4877H36.9993H40.5472Z" fill="#FFE07D"/>
<path fill-rule="evenodd" clip-rule="evenodd" d="M40.5468 13.7828C40.5468 12.9264 39.8462 12.2297 38.9941 12.2297H36.9375H36.6343H35.5077C36.3598 12.2297 37.0604 12.9264 37.0604 13.7828V28.4743V34.0476H40.5468V13.7828Z" fill="#FFD064"/>
<path fill-rule="evenodd" clip-rule="evenodd" d="M27.5276 39.8835C32.5462 37.4041 35.8236 30.8349 33.0377 25.1878L31.0221 21.1021C24.0658 23.3888 22.386 20.725 18.9284 22.4462C15.4625 24.1428 16.5481 27.0975 10.5013 31.2284L12.517 35.3141C15.3028 40.9612 22.509 42.3587 27.5276 39.8835Z" fill="#CCF49E"/>
<path fill-rule="evenodd" clip-rule="evenodd" d="M31.0221 21.1016C24.0658 23.3883 22.3861 20.7245 18.9284 22.4457C15.4625 24.1423 16.5481 27.0969 10.5013 31.2279L12.517 35.3136C12.7628 35.8094 13.0373 36.2685 13.3446 36.6987C19.498 32.4941 18.3918 29.1133 21.9192 27.388C25.4384 25.6382 26.4584 28.7198 33.5377 26.3962C33.4026 25.9906 33.2345 25.5849 33.0379 25.1873L31.0221 21.1016Z" fill="#ECEAED"/>
<path fill-rule="evenodd" clip-rule="evenodd" d="M33.0382 25.1878L31.0226 21.1021C29.4822 21.6062 28.1999 21.8725 27.1021 21.9954L29.1177 26.0811C29.3102 26.4705 29.47 26.8639 29.6052 27.2573C30.6784 27.1631 31.9567 26.9131 33.538 26.3968C33.4027 25.9909 33.2347 25.5852 33.0382 25.1878Z" fill="#DAD8DB"/>
<path fill-rule="evenodd" clip-rule="evenodd" d="M33.3815 33.2731C34.1763 31.1052 34.3237 28.7039 33.5372 26.3967C31.9559 26.9131 30.6777 27.163 29.6044 27.2572C29.6084 27.2695 29.6126 27.2778 29.6167 27.2859C30.3869 29.552 30.2598 31.9084 29.5061 34.0475H33.0702C33.1848 33.7936 33.2873 33.5354 33.3815 33.2731Z" fill="#B3E59E"/>
<path fill-rule="evenodd" clip-rule="evenodd" d="M25.2576 34.0476H16.4824H11.894H7.01478C6.96564 34.0476 6.9165 34.0517 6.86736 34.0599C6.53147 34.1255 6.16277 34.3959 5.99887 34.7197L4.29052 38.0759L1.1646 44.2027C0.980177 44.5715 1.12774 44.8748 1.49644 44.8748H4.29037H30.8128C31.1815 44.8748 31.6362 44.5715 31.8247 44.2027L34.9464 38.0761L36.4049 35.2115L36.9989 34.0476H35.4873H33.0701H25.2576Z" fill="#FFDECF"/>
<path fill-rule="evenodd" clip-rule="evenodd" d="M69.7074 44.8749L36.9988 34.0476V71.3242H69.0233C69.4002 71.3242 69.7075 71.0127 69.7075 70.6399V44.8749H69.7074Z" fill="#4FDAE1"/>
<path fill-rule="evenodd" clip-rule="evenodd" d="M60.4446 34.0476H40.5466H36.9988L42.173 44.2027C42.3615 44.5715 42.8204 44.8748 43.1891 44.8748H69.7075H72.5014C72.8701 44.8748 73.0217 44.5715 72.8333 44.2027L67.9991 34.7198C67.8107 34.3469 67.356 34.0478 66.9873 34.0478H60.4446V34.0476Z" fill="#FFDECF"/>
<path fill-rule="evenodd" clip-rule="evenodd" d="M60.8515 4.29817C60.9335 3.88019 60.6548 3.46625 60.237 3.38835L56.5334 2.66699C56.8816 2.79808 57.0946 3.16693 57.0209 3.54401L56.2179 7.69972C57.3856 7.92923 58.7498 8.1956 60.0443 8.45374L60.8515 4.29817Z" fill="#B6B1B7"/>
<path fill-rule="evenodd" clip-rule="evenodd" d="M69.2459 14.8433C69.5941 11.9089 67.3859 9.84336 64.5796 9.37204C63.8626 9.21638 62.0354 8.84753 60.0443 8.45397C58.7498 8.19584 57.3854 7.92932 56.2179 7.69995C58.2049 8.09337 60.0363 8.46221 60.7491 8.61802C63.5554 9.09338 65.7186 11.1508 65.4196 14.0933L63.3996 34.048H66.9885L69.2459 14.8433Z" fill="#DAD8DB"/>
<path fill-rule="evenodd" clip-rule="evenodd" d="M36.938 12.229V9.8808C36.938 9.18824 36.6348 8.56535 36.1595 8.1351C36.0816 8.06949 36.0039 8.00402 35.9219 7.94665C35.5409 7.68434 35.0821 7.52869 34.5905 7.52869H32.9027H32.0751C33.3656 7.52869 34.4226 8.58587 34.4226 9.8808V12.2289H35.5081H36.6348H36.938V12.229Z" fill="#B6B1B7"/>
<path fill-rule="evenodd" clip-rule="evenodd" d="M4.29016 50.6572H32.2547C32.6234 50.6572 33.0946 50.3621 33.2707 49.9852L36.4048 43.1619L36.9988 41.998V34.0476L36.4048 35.2115L34.9463 38.0761L31.8246 44.2028C31.6361 44.5716 31.1814 44.8748 30.8127 44.8748H4.29016V50.6572Z" fill="#FCB788"/>
<path fill-rule="evenodd" clip-rule="evenodd" d="M41.7429 50.6572H69.7074V44.8748H43.1891C42.8204 44.8748 42.3615 44.5716 42.173 44.2028L36.9988 34.0476V41.998L40.7309 49.9852C40.903 50.3621 41.3742 50.6572 41.7429 50.6572Z" fill="#DB9975"/>
<path fill-rule="evenodd" clip-rule="evenodd" d="M31.8253 44.2028L34.947 38.0761L36.4055 35.2115L36.9995 34.0476H35.4879H33.0707H30.8052L27.9374 39.6702L25.6267 44.2027C25.4383 44.5715 24.9836 44.8748 24.6149 44.8748H30.8133C31.1821 44.8749 31.6368 44.5715 31.8253 44.2028Z" fill="#FFCBBE"/>
<path fill-rule="evenodd" clip-rule="evenodd" d="M69.7097 44.8755H72.5037C72.8724 44.8755 73.024 44.5723 72.8356 44.2034L68.0012 34.7197C67.8127 34.3468 67.358 34.0476 66.9893 34.0476H63.4005H61.0488C61.4175 34.0476 61.8724 34.3468 62.0608 34.7197L62.4746 35.5271L66.8952 44.2034C67.0837 44.5723 66.9321 44.8755 66.5634 44.8755H69.7097Z" fill="#FFCBBE"/>
<path d="M73.7994 43.7113L68.9664 34.2302C68.7866 33.8748 68.4987 33.5677 68.162 33.3445L70.3217 14.9712C70.7137 11.6696 68.4374 8.9332 64.7846 8.30867C64.1819 8.17773 62.8569 7.9089 61.3136 7.60105L61.9143 4.5082C62.0103 4.0191 61.9081 3.52134 61.6265 3.10653C61.3459 2.69302 60.9225 2.41509 60.4425 2.32562L48.634 0.0350751C48.1461 -0.0606052 47.6504 0.0410009 47.2367 0.321104C46.8257 0.599473 46.547 1.01992 46.4519 1.50583L45.8472 4.60388C44.3058 4.31352 42.9807 4.0681 42.3718 3.96433C39.4475 3.33258 36.7426 4.37711 35.4044 6.5435C35.1435 6.47976 34.8712 6.44508 34.591 6.44508H33.9868V2.60341C33.9868 2.0036 33.5012 1.51942 32.9028 1.51942H28.0886C27.9022 1.51942 27.7186 1.56712 27.5568 1.65817L25.1924 2.99076C24.6721 3.28416 24.4871 3.94467 24.7805 4.46643C25.0753 4.98819 25.7358 5.17319 26.2576 4.87979L28.3735 3.6874H31.819V6.44493H31.2148C29.3231 6.44493 27.7838 7.98565 27.7838 9.88176V11.145H26.8111C25.3571 11.145 24.1736 12.3287 24.1736 13.7825V20.9424C23.8773 20.9193 23.5897 20.8903 23.3093 20.8614C21.7599 20.7039 20.2959 20.5536 18.4517 21.4728C16.5975 22.3805 15.8243 23.632 15.0062 24.9588C14.1766 26.3015 13.2487 27.8045 10.906 29.5996C10.153 28.1094 8.95342 27.2063 7.60364 27.1181C6.4763 27.0458 5.42715 27.5618 4.79844 28.5027C4.03965 29.6402 4.03531 31.1634 4.78398 32.681C4.96465 33.0481 5.15832 33.4051 5.36644 33.7491C5.23348 33.8951 5.12074 34.0555 5.03402 34.2275L0.19526 43.7185C-0.072123 44.2532 -0.0648964 44.8213 0.21694 45.2751C0.481432 45.7029 0.95983 45.9587 1.49604 45.9587H3.20715V57.755C3.20715 58.3548 3.69277 58.839 4.29113 58.839C4.88949 58.839 5.37512 58.3548 5.37512 57.755V45.9587H30.8132C31.585 45.9587 32.4175 45.4283 32.7918 44.6955L35.915 38.5633V70.2407H5.37512V62.7644C5.37512 62.1645 4.88949 61.6804 4.29113 61.6804C3.69277 61.6804 3.20715 62.1645 3.20715 62.7644V70.6396C3.20715 71.6152 4.00062 72.4087 4.97476 72.4087H69.0244C69.9985 72.4087 70.792 71.6152 70.792 70.6396V45.9586H72.5016C73.0422 45.9586 73.522 45.7013 73.7865 45.2692C74.0668 44.8111 74.0711 44.2431 73.7994 43.7113ZM48.5213 2.22026L59.7287 4.39402L59.188 7.178C56.7769 6.70191 50.2671 5.44217 47.9776 5.00626L48.5213 2.22026ZM41.9334 6.0875C41.9502 6.09112 49.1506 7.43425 51.901 7.96975L46.9417 28.6474C46.8021 29.2296 47.1608 29.8146 47.743 29.9542C47.828 29.9746 47.913 29.9845 47.9967 29.9845C48.4865 29.9845 48.9306 29.6502 49.0499 29.153L54.0308 8.38528C56.598 8.88507 64.382 10.4394 64.3994 10.4423C66.4867 10.7926 68.4617 12.2499 68.169 14.7171L66.0239 32.9644H61.6563L63.2028 18.6491C63.2603 18.0965 62.8775 17.5739 62.3311 17.4684L57.4479 16.5217C56.8589 16.407 56.2913 16.792 56.1773 17.3795C56.0634 17.9672 56.4474 18.5361 57.0351 18.65L60.9393 19.4069L59.4739 32.9644H41.6308V15.6649L44.5609 16.2319C44.6304 16.2454 44.6998 16.2519 44.768 16.2519C45.2769 16.2519 45.7309 15.8918 45.831 15.3737C45.9448 14.786 45.5604 14.2173 44.9728 14.1035L41.6079 13.4524C41.4448 12.154 40.3367 11.145 38.9948 11.145H38.0221V9.88176C38.0221 9.05215 37.7274 8.29061 37.2376 7.69629C38.2014 6.09198 40.2135 5.70999 41.9334 6.0875ZM29.9516 9.88176C29.9516 9.18223 30.5182 8.61277 31.2148 8.61277H34.591C34.8475 8.61277 35.086 8.69038 35.2854 8.82292C35.2935 8.82885 35.3019 8.83419 35.3101 8.83997C35.6384 9.06935 35.854 9.45062 35.854 9.88176V11.145H29.9515V9.88176H29.9516ZM16.8519 26.0962C17.6107 24.8648 18.1122 24.0527 19.4114 23.4168C20.7006 22.775 21.6515 22.8719 23.0896 23.0179C24.8384 23.1971 26.9831 23.4153 30.459 22.4108L32.0661 25.667C32.0719 25.6786 32.0763 25.6901 32.082 25.7017C29.1641 26.4923 27.5511 26.2119 26.1103 25.9589C24.6838 25.7089 23.3354 25.4733 21.4421 26.4157C19.5532 27.3421 18.7698 28.6919 17.9417 30.1213C17.4445 30.9784 16.8866 31.9381 15.9977 32.9641H12.5681L11.8831 31.5766C14.7952 29.429 15.9284 27.5936 16.8519 26.0962ZM31.2495 19.2298C30.8405 18.4016 30.7943 17.6457 31.1223 17.1559C31.3261 16.8524 31.6513 16.692 32.017 16.7151C32.6038 16.7541 33.1732 17.2499 33.5823 18.078C34.9452 20.8399 35.0868 23.5137 34.6027 26.1557C34.4408 25.6642 34.2428 25.1815 34.0101 24.7089L31.2495 19.2298ZM32.3422 32.9643H18.7308C19.1687 32.3269 19.5127 31.7343 19.8162 31.2097C20.5895 29.8771 21.0982 28.9985 22.4018 28.3596C23.6635 27.7324 24.4438 27.8682 25.736 28.0951C27.2637 28.3625 29.3043 28.7181 32.7859 27.7569C33.1386 29.4435 32.9911 31.2255 32.3422 32.9643ZM6.60204 29.7065C6.79716 29.4131 7.11224 29.2585 7.46345 29.2816C8.03435 29.3177 8.59079 29.8034 8.98825 30.6084L10.1503 32.9641H7.43165C7.17872 32.5724 6.94169 32.1576 6.72923 31.724C6.33032 30.9177 6.28407 30.182 6.60204 29.7065ZM30.8622 43.7055C30.8463 43.7315 30.8196 43.7845 30.7596 43.7907H2.59144L6.96337 35.2145C6.97927 35.1885 7.00528 35.135 7.11657 35.1321H35.2312L30.8622 43.7055ZM34.6892 32.9643C36.3817 28.9334 38.5076 23.1611 35.5261 17.1183C34.7673 15.5791 33.5404 14.6427 32.1586 14.5516C31.0168 14.4764 29.9561 14.9996 29.3202 15.9507C28.5513 17.1026 28.5455 18.646 29.3043 20.1897L29.4315 20.4455C28.229 20.7663 27.2232 20.9181 26.3415 20.9745V13.7828C26.3415 13.5285 26.5569 13.3131 26.8113 13.3131H38.9948C39.2492 13.3131 39.4631 13.5285 39.4631 13.7828V32.9644H34.6892V32.9643ZM58.8974 43.7864C58.8974 43.7864 58.8974 43.7864 58.8959 43.7864C58.2976 43.7864 57.8134 44.272 57.8119 44.8704C57.8119 45.4688 58.2976 45.9544 58.8959 45.9544L68.624 45.9587V70.2407H38.0827V38.5632L41.2088 44.6954C41.5816 45.4282 42.4156 45.9586 43.1903 45.9586L53.8909 45.9543C54.4893 45.9543 54.9749 45.4686 54.9749 44.8703C54.9735 44.2719 54.4893 43.7863 53.8909 43.7863C53.8895 43.7863 53.8895 43.7863 53.8895 43.7863L43.2423 43.7906C43.1809 43.7737 43.1527 43.7313 43.1397 43.7111L38.7678 35.132H66.9359C66.9807 35.132 67.0139 35.1479 67.0342 35.2115L71.4075 43.7906L58.8974 43.7864Z" fill="black"/>
</svg>
