<svg width="74" height="70" viewBox="0 0 74 70" fill="none" xmlns="http://www.w3.org/2000/svg">
<path d="M58.7827 0H15.2174C6.8265 0 0 6.82656 0 15.2175C0 23.6079 6.82592 30.4342 15.216 30.4351H15.2167H15.2173H58.7826C67.1735 30.4351 73.9998 23.6085 73.9998 15.2175C73.9998 6.82656 67.1736 0 58.7827 0Z" fill="#3DE9F2"/>
<path d="M74 15.2176C74 23.6076 67.1738 30.4352 58.7823 30.4352H31.7174V0H58.7823C67.1738 0 74 6.82616 74 15.2176Z" fill="#00CEF2"/>
<path d="M58.7827 26.0988H15.2174C9.21734 26.0988 4.33594 21.2174 4.33594 15.2175C4.33594 9.21758 9.21734 4.33606 15.2174 4.33606H58.7827C64.7827 4.33606 69.6641 9.21744 69.6641 15.2175C69.6641 21.2175 64.7827 26.0988 58.7827 26.0988Z" fill="#70FFFF"/>
<path d="M69.6641 15.2178C69.6641 21.2173 64.7833 26.0996 58.7823 26.0996H31.7174V4.33606H58.7823C64.7833 4.33606 69.6641 9.21689 69.6641 15.2178Z" fill="#3DE9F2"/>
<path d="M56.6493 43.0428V59.6913L56.0154 60.4139H27.2871L26.2977 59.6898L16.0837 51.1206C14.9607 50.1768 14.2626 48.7965 14.1701 47.3339C14.0762 45.8698 14.5936 44.4129 15.5894 43.3347C17.5449 41.2173 20.8056 41.0107 23.0126 42.8636L26.2977 45.6198V18.5723C26.2977 15.5834 28.7288 13.1523 31.7177 13.1523C34.7066 13.1523 37.1376 15.5834 37.1376 18.5723V35.0589L50.8608 36.5779C54.1605 36.9436 56.6493 39.7229 56.6493 43.0428Z" fill="#FDDBCC"/>
<path d="M56.649 43.0428V59.6913L56.0146 60.4139H31.7174V13.1523C34.7063 13.1523 37.1373 15.5834 37.1373 18.5723V35.0589L50.8606 36.5779C54.1602 36.9436 56.649 39.7229 56.649 43.0428Z" fill="#FBCDBE"/>
<path d="M56.649 59.6917V67.3511C56.649 68.5478 55.6778 69.5189 54.4811 69.5189H28.4655C27.2687 69.5189 26.2975 68.5478 26.2975 67.3511V59.6917H56.649Z" fill="#00347B"/>
<path d="M56.649 59.6917V67.3511C56.649 68.5478 55.6778 69.5189 54.4811 69.5189H31.7174V59.6917H56.649Z" fill="#002860"/>
<path d="M60.1984 9.30734C59.3518 8.4607 57.9791 8.4607 57.1324 9.30734L49.9934 16.4459L47.1904 13.6431C46.3439 12.7965 44.9711 12.7965 44.1244 13.6431C43.2778 14.4898 43.2778 15.8623 44.1244 16.709L48.4604 21.0448C49.3069 21.8914 50.6797 21.8916 51.5263 21.0448L60.1982 12.3732C61.045 11.5265 61.045 10.1538 60.1984 9.30734Z" fill="#00CEF2"/>
</svg>
