<svg width="155" height="20" viewBox="0 0 155 20" fill="none" xmlns="http://www.w3.org/2000/svg">
<path d="M145 19.9995C150.523 19.9995 155 15.5224 155 9.99951C155 4.47666 150.523 -0.000488281 145 -0.000488281C139.477 -0.000488281 135 4.47666 135 9.99951C135 15.5224 139.477 19.9995 145 19.9995Z" fill="#273B7A"/>
<path d="M154.775 12.1161L148.661 6.00244L143.563 6.40928L140.959 8.78603L141.294 13.9562L147.083 19.7817C150.923 18.9681 153.949 15.9512 154.775 12.1161Z" fill="#121149"/>
<path d="M145.218 9.08166V10.9982H148.215C147.79 12.3701 146.512 13.3666 145 13.3666C143.142 13.3666 141.635 11.8598 141.635 10.0009C141.635 8.14219 143.142 6.63528 145 6.63528C145.869 6.63528 146.658 6.96725 147.255 7.50752L148.661 6.00191C147.696 5.11822 146.411 4.57861 145 4.57861C142.006 4.57861 139.579 7.00624 139.579 10.001C139.579 12.9957 142.006 15.4233 145 15.4233C147.994 15.4233 150.422 12.9957 150.422 10.001C150.422 9.68726 150.393 9.38061 150.341 9.08166H145.218Z" fill="#4285F4"/>
<path d="M145 6.63484C145.869 6.63484 146.658 6.96672 147.255 7.50686L148.661 6.00163C147.696 5.11809 146.411 4.57861 145 4.57861C142.924 4.57861 141.121 5.7463 140.21 7.46026L141.864 8.78516C142.352 7.52787 143.57 6.63484 145 6.63484Z" fill="#EA4335"/>
<path d="M141.635 10.001C141.635 9.57217 141.718 9.16361 141.865 8.78647L140.21 7.46143C139.808 8.21912 139.579 9.08318 139.579 10.001C139.579 10.9231 139.81 11.7911 140.216 12.5513L141.86 11.2035C141.717 10.8295 141.635 10.4253 141.635 10.001Z" fill="#FBBC05"/>
<path d="M146.871 12.7954C146.336 13.1544 145.694 13.3657 145.001 13.3657C143.566 13.3657 142.345 12.4669 141.861 11.2031L140.216 12.5508C141.128 14.2591 142.928 15.4219 145 15.4219C146.346 15.4219 147.576 14.9306 148.524 14.1189L146.871 12.7954Z" fill="#34A853"/>
<path d="M150.422 10.0003C150.422 9.6868 150.393 9.38033 150.341 9.08154H145.218V10.997H148.215C147.985 11.7395 147.503 12.3701 146.871 12.794L148.524 14.1172C149.685 13.1232 150.422 11.6482 150.422 10.0003Z" fill="#4285F4"/>
<path d="M64.6576 3.57643C64.4756 1.87097 63.1285 0.523753 61.4227 0.341886C57.1451 -0.114613 52.8549 -0.114613 48.5774 0.341886C46.8716 0.523905 45.5244 1.87097 45.3424 3.57643C44.8859 7.85351 44.8859 12.1434 45.3424 16.4205C45.5244 18.1261 46.8716 19.4732 48.5773 19.6552C52.8548 20.1117 57.1451 20.1117 61.4227 19.6552C63.1285 19.4732 64.4756 18.1261 64.6576 16.4205C65.1141 12.1434 65.1141 7.85366 64.6576 3.57643Z" fill="url(#paint0_radial_4_73)"/>
<path d="M63.5699 4.30084C63.4085 2.78755 62.2131 1.5922 60.6995 1.43063C56.9037 1.02573 53.0966 1.02573 49.3008 1.43063C47.7873 1.5922 46.5918 2.78755 46.4302 4.30084C46.0252 8.09604 46.0252 11.9025 46.4302 15.6976C46.5918 17.211 47.7873 18.4064 49.3008 18.5678C53.0966 18.9728 56.9037 18.9728 60.6993 18.5678C62.213 18.4064 63.4085 17.211 63.5699 15.6976C63.9751 11.9025 63.9751 8.09604 63.5699 4.30084Z" fill="url(#paint1_linear_4_73)"/>
<path d="M45.2993 16.0054C45.313 16.1436 45.3272 16.2819 45.342 16.4202C45.5241 18.1261 46.8713 19.4735 48.5771 19.6556C52.8546 20.1122 57.1449 20.1122 61.4224 19.6556C63.1281 19.4735 64.4752 18.1261 64.6572 16.4202C64.672 16.2819 64.6862 16.1436 64.7001 16.0054H45.2993Z" fill="url(#paint2_linear_4_73)"/>
<path d="M64.6575 16.4231C64.9029 14.125 65.0161 11.8232 64.9978 9.52174L60.4262 4.95083C59.8551 4.29892 59.0209 3.89202 58.0407 3.85678C56.0248 3.78415 54.0026 3.78782 51.9865 3.85708C50.312 3.91475 49.141 5.04009 48.8407 6.69406C48.7878 6.98608 48.756 7.2819 48.7144 7.57605V12.4249C48.7374 12.5821 48.7713 12.7385 48.7818 12.8965C48.8489 13.9025 49.2625 14.7642 49.9245 15.3472L54.5766 19.9985C56.8597 20.0145 59.1428 19.901 61.4226 19.6577C63.1284 19.4757 64.4755 18.1287 64.6575 16.4231Z" fill="url(#paint3_linear_4_73)"/>
<path d="M64.6574 16.4208C64.4756 18.1263 63.1281 19.4738 61.4226 19.6557C59.1431 19.8989 56.8594 20.0126 54.5767 19.9966L49.9316 15.3514C50.4701 15.8228 51.172 16.1098 51.9865 16.1405C54.0022 16.2162 56.0249 16.2142 58.0406 16.1415C59.8637 16.0756 61.183 14.7263 61.2399 12.9031C61.3007 10.9674 61.3007 9.02659 61.2399 7.09084C61.214 6.24977 60.9187 5.50971 60.4292 4.94971L64.9979 9.51839C65.0159 11.8199 64.9027 14.1223 64.6574 16.4208Z" fill="url(#paint4_linear_4_73)"/>
<path d="M57.3602 7.83455C56.7746 7.19693 55.9343 6.79688 55.0003 6.79688C53.2312 6.79688 51.7969 8.2311 51.7969 10.0001C51.7969 10.934 52.197 11.7743 52.8346 12.3598L60.2463 19.771C60.6386 19.7368 61.0309 19.6988 61.4229 19.657C63.1287 19.475 64.4759 18.1279 64.6579 16.4222C64.6997 16.0303 64.7377 15.638 64.7719 15.2457L57.3602 7.83455Z" fill="url(#paint5_linear_4_73)"/>
<path d="M64.9613 12.1544L58.9964 6.18801C58.8572 6.00531 58.6379 5.88672 58.3906 5.88672C57.9698 5.88672 57.6284 6.228 57.6284 6.6491C57.6284 6.89652 57.747 7.11584 57.9296 7.25504L64.8547 14.1821C64.9017 13.5064 64.9372 12.8304 64.9613 12.1544Z" fill="url(#paint6_linear_4_73)"/>
<path d="M48.7144 7.57581C48.756 7.28168 48.7878 6.98587 48.8407 6.69388C49.1408 5.04001 50.312 3.91474 51.9865 3.85708C54.0026 3.78782 56.0248 3.78416 58.0407 3.85677C59.8632 3.92237 61.1831 5.27159 61.24 7.09434C61.3006 9.02983 61.3006 10.9701 61.24 12.9055C61.1831 14.7283 59.8637 16.0774 58.0408 16.1431C56.025 16.2159 54.0023 16.2177 51.9866 16.142C50.1638 16.0735 48.9037 14.7213 48.7818 12.8958C48.7713 12.7379 48.7374 12.5814 48.7144 12.4242C48.7144 10.808 48.7144 9.19185 48.7144 7.57581ZM55.0016 15.0629C55.9241 15.0629 56.8476 15.0905 57.7689 15.0564C59.2135 15.0029 60.102 14.141 60.1357 12.6981C60.1775 10.9002 60.1775 9.09986 60.1357 7.30182C60.102 5.85924 59.2129 4.97715 57.7689 4.94649C55.9362 4.90774 54.1015 4.90804 52.2687 4.94649C50.8358 4.97654 49.9447 5.84078 49.9058 7.26749C49.8563 9.08811 49.8563 10.9119 49.9058 12.7325C49.9447 14.1591 50.8358 15.0034 52.2689 15.0564C53.1786 15.0903 54.0906 15.0629 55.0016 15.0629Z" fill="url(#paint7_linear_4_73)"/>
<path d="M48.7144 7.57581C48.756 7.28168 48.7878 6.98587 48.8407 6.69388C49.1408 5.04001 50.312 3.91474 51.9865 3.85708C54.0026 3.78782 56.0248 3.78416 58.0407 3.85677C59.8632 3.92237 61.1831 5.27159 61.24 7.09434C61.3006 9.02983 61.3006 10.9701 61.24 12.9055C61.1831 14.7283 59.8637 16.0774 58.0408 16.1431C56.025 16.2159 54.0023 16.2177 51.9866 16.142C50.1638 16.0735 48.9037 14.7213 48.7818 12.8958C48.7713 12.7379 48.7374 12.5814 48.7144 12.4242C48.7144 10.808 48.7144 9.19185 48.7144 7.57581ZM55.0016 15.0629C55.9241 15.0629 56.8476 15.0905 57.7689 15.0564C59.2135 15.0029 60.102 14.141 60.1357 12.6981C60.1775 10.9002 60.1775 9.09986 60.1357 7.30182C60.102 5.85924 59.2129 4.97715 57.7689 4.94649C55.9362 4.90774 54.1015 4.90804 52.2687 4.94649C50.8358 4.97654 49.9447 5.84078 49.9058 7.26749C49.8563 9.08811 49.8563 10.9119 49.9058 12.7325C49.9447 14.1591 50.8358 15.0034 52.2689 15.0564C53.1786 15.0903 54.0906 15.0629 55.0016 15.0629Z" fill="white"/>
<path d="M55.0003 6.79541C53.2312 6.79541 51.7969 8.2297 51.7969 9.99895C51.7969 11.7683 53.2312 13.2026 55.0003 13.2026C56.7696 13.2026 58.2037 11.7683 58.2037 9.99895C58.2037 8.2297 56.7696 6.79541 55.0003 6.79541ZM55.0003 12.0996C53.8402 12.0996 52.8998 11.1592 52.8998 9.99895C52.8998 8.83873 53.8402 7.89825 55.0003 7.89825C56.1604 7.89825 57.1008 8.83873 57.1008 9.99895C57.1008 11.1592 56.1604 12.0996 55.0003 12.0996Z" fill="white"/>
<path d="M59.1526 6.64973C59.1526 7.07023 58.8114 7.41113 58.3906 7.41113C57.9698 7.41113 57.6284 7.07023 57.6284 6.64973C57.6284 6.22909 57.9698 5.88818 58.3906 5.88818C58.8114 5.88818 59.1526 6.22909 59.1526 6.64973Z" fill="white"/>
<path d="M17.5 -0.000488281H2.5C1.12083 -0.000488281 0 1.12034 0 2.49951V17.4995C0 18.8778 1.12083 19.9995 2.5 19.9995H17.5C18.8783 19.9995 20 18.8778 20 17.4995V2.49951C20 1.12034 18.8783 -0.000488281 17.5 -0.000488281Z" fill="#3B5999"/>
<path d="M13.75 10.0003V7.50038C13.75 6.8104 14.31 6.87539 15 6.87539H16.25V3.75049H13.75C11.6783 3.75049 10 5.42877 10 7.50038V10.0003H7.5V13.1252H10V20H13.75V13.1252H15.625L16.875 10.0003H13.75Z" fill="white"/>
<path d="M106.423 19.6571C102.145 20.1136 97.8548 20.1136 93.5773 19.6571C91.8716 19.4751 90.5244 18.1279 90.3424 16.4221C89.8859 12.1446 89.8859 7.85428 90.3424 3.57678C90.5244 1.87115 91.8716 0.523956 93.5773 0.341919C97.8548 -0.114624 102.145 -0.114624 106.423 0.341919C108.128 0.523956 109.476 1.87115 109.658 3.57678C110.114 7.85428 110.114 12.1446 109.658 16.4221C109.476 18.1279 108.129 19.4751 106.423 19.6571Z" fill="url(#paint8_linear_4_73)"/>
<path d="M108.57 4.30256C108.409 2.78915 107.213 1.5937 105.699 1.43212C101.904 1.02718 98.0966 1.02718 94.3008 1.43212C92.7873 1.5937 91.5918 2.78915 91.4302 4.30256C91.0252 8.09808 91.0252 11.9049 91.4302 15.7003C91.5918 17.2138 92.7873 18.4093 94.3008 18.5707C98.0966 18.9758 101.904 18.9758 105.699 18.5707C107.213 18.4093 108.409 17.2138 108.57 15.7003C108.975 11.9049 108.975 8.09808 108.57 4.30256Z" fill="url(#paint9_linear_4_73)"/>
<path d="M90.2998 16.0093C90.3135 16.1475 90.3277 16.2857 90.3425 16.4239C90.5246 18.129 91.8718 19.4757 93.5775 19.6577C97.855 20.1141 102.145 20.1141 106.423 19.6577C108.129 19.4757 109.476 18.129 109.658 16.4239C109.673 16.2857 109.687 16.1475 109.701 16.0093H90.2998Z" fill="url(#paint10_linear_4_73)"/>
<path d="M109.996 9.29835L105.844 5.1475C105.379 5.41343 104.969 5.56097 104.66 5.64275C104.487 5.68928 104.345 5.71461 104.243 5.72849C103.775 5.24866 103.121 4.95068 102.398 4.95068C100.974 4.95068 99.8197 6.10473 99.8197 7.52853C99.8197 7.57994 99.821 7.63075 99.8244 7.6814C99.8313 7.80483 99.847 7.92613 99.8712 8.04406C99.2769 8.03522 97.3452 7.87654 95.5028 6.29743C95.5027 6.29743 95.5027 6.29728 95.5027 6.29728H95.5025L94.6337 5.42838C94.6337 5.42838 93.6144 7.20721 95.1129 8.55701C95.1787 8.6304 95.251 8.70287 95.3302 8.77412C95.3365 8.78114 95.343 8.788 95.3493 8.79502C95.1526 8.78175 94.561 8.72285 94.2186 8.48103C94.2186 8.48103 94.1498 9.56825 95.0557 10.3686L95.7872 11.1063C95.5645 11.1248 95.318 11.1204 95.1467 11.0453C95.1467 11.0453 95.2983 11.6893 95.8846 12.2047L96.9094 13.2347C96.2946 13.5928 95.2184 14.0409 93.8018 13.9264L100.018 20C102.154 19.9994 104.29 19.8853 106.423 19.6576C108.129 19.4756 109.476 18.1286 109.658 16.4231C109.911 14.0506 110.024 11.6742 109.996 9.29835Z" fill="url(#paint11_linear_4_73)"/>
<path d="M106.198 6.14866C105.756 6.38011 105.089 6.48706 104.868 6.51788C104.867 6.5072 104.865 6.49698 104.863 6.48676C105.614 6.02218 105.844 5.1475 105.844 5.1475C105.379 5.41343 104.969 5.56096 104.66 5.64274C104.486 5.68927 104.345 5.71445 104.243 5.72849C103.775 5.2485 103.121 4.95068 102.397 4.95068C100.974 4.95068 99.8193 6.10457 99.8193 7.5285C99.8193 7.57977 99.8207 7.63073 99.8241 7.68123C99.8309 7.80466 99.8466 7.92595 99.8709 8.04389C99.1818 8.03366 96.6945 7.82235 94.6333 5.42838C94.6333 5.42838 93.4856 7.43071 95.4152 8.7985C95.4152 8.7985 94.6333 8.77409 94.2183 8.481C94.2183 8.481 94.0962 10.4104 96.3187 11.0207C96.3187 11.0207 95.5373 11.2163 95.1462 11.0452C95.1462 11.0452 95.5371 12.7058 97.491 12.8282C97.491 12.8282 96.0896 14.111 93.8013 13.9264C94.9268 14.6389 96.2611 15.0513 97.6918 15.0513C101.714 15.0513 104.976 11.7907 104.976 7.7685C104.976 7.7183 104.975 7.66811 104.974 7.61791C104.975 7.58816 104.976 7.55856 104.976 7.5285C104.976 7.5076 104.975 7.4867 104.975 7.4658C105.719 6.97025 106.198 6.14866 106.198 6.14866Z" fill="white"/>
<defs>
<radialGradient id="paint0_radial_4_73" cx="0" cy="0" r="1" gradientUnits="userSpaceOnUse" gradientTransform="translate(49.0999 17.4762) scale(22.0565 22.0543)">
<stop stop-color="#FAE100"/>
<stop offset="0.0544" stop-color="#FADC04"/>
<stop offset="0.1167" stop-color="#FBCE0E"/>
<stop offset="0.1829" stop-color="#FCB720"/>
<stop offset="0.2514" stop-color="#FE9838"/>
<stop offset="0.3054" stop-color="#FF7950"/>
<stop offset="0.4922" stop-color="#FF1C74"/>
<stop offset="1" stop-color="#6C1CD1"/>
</radialGradient>
<linearGradient id="paint1_linear_4_73" x1="52.6709" y1="8.68932" x2="18.791" y2="-10.371" gradientUnits="userSpaceOnUse">
<stop stop-color="#A1B5D8" stop-opacity="0"/>
<stop offset="0.3094" stop-color="#90A2BD" stop-opacity="0.309804"/>
<stop offset="0.7554" stop-color="#7C8B9C" stop-opacity="0.756863"/>
<stop offset="1" stop-color="#748290"/>
</linearGradient>
<linearGradient id="paint2_linear_4_73" x1="54.9996" y1="17.6526" x2="54.9996" y2="20.7706" gradientUnits="userSpaceOnUse">
<stop stop-color="#FAE100" stop-opacity="0"/>
<stop offset="0.3068" stop-color="#FCA800" stop-opacity="0.305882"/>
<stop offset="0.6275" stop-color="#FE7300" stop-opacity="0.627451"/>
<stop offset="0.8685" stop-color="#FF5200" stop-opacity="0.866667"/>
<stop offset="1" stop-color="#FF4500"/>
</linearGradient>
<linearGradient id="paint3_linear_4_73" x1="53.8621" y1="8.83548" x2="48.9131" y2="3.88579" gradientUnits="userSpaceOnUse">
<stop stop-color="#833AB4" stop-opacity="0"/>
<stop offset="1" stop-color="#833AB4"/>
</linearGradient>
<linearGradient id="paint4_linear_4_73" x1="58.7069" y1="18.2905" x2="56.2363" y2="6.64395" gradientUnits="userSpaceOnUse">
<stop stop-color="#833AB4" stop-opacity="0"/>
<stop offset="1" stop-color="#833AB4"/>
</linearGradient>
<linearGradient id="paint5_linear_4_73" x1="59.6474" y1="14.6468" x2="49.7252" y2="4.72402" gradientUnits="userSpaceOnUse">
<stop stop-color="#833AB4" stop-opacity="0"/>
<stop offset="1" stop-color="#833AB4"/>
</linearGradient>
<linearGradient id="paint6_linear_4_73" x1="60.3832" y1="8.64219" x2="57.101" y2="5.36091" gradientUnits="userSpaceOnUse">
<stop stop-color="#833AB4" stop-opacity="0"/>
<stop offset="1" stop-color="#833AB4"/>
</linearGradient>
<linearGradient id="paint7_linear_4_73" x1="58.9709" y1="6.05843" x2="50.8821" y2="14.1489" gradientUnits="userSpaceOnUse">
<stop stop-color="#833AB4"/>
<stop offset="0.0922" stop-color="#9C3495"/>
<stop offset="0.2927" stop-color="#DC2546"/>
<stop offset="0.392" stop-color="#FD1D1D"/>
<stop offset="0.5589" stop-color="#FC6831"/>
<stop offset="0.6887" stop-color="#FC9B40"/>
<stop offset="0.7521" stop-color="#FCAF45"/>
<stop offset="0.7806" stop-color="#FDB750"/>
<stop offset="0.8656" stop-color="#FECB6A"/>
<stop offset="0.9415" stop-color="#FFD87A"/>
<stop offset="1" stop-color="#FFDC80"/>
</linearGradient>
<linearGradient id="paint8_linear_4_73" x1="96.6404" y1="2.81147" x2="101.699" y2="13.6345" gradientUnits="userSpaceOnUse">
<stop stop-color="#00C3FF"/>
<stop offset="1" stop-color="#00B0ED"/>
</linearGradient>
<linearGradient id="paint9_linear_4_73" x1="104.23" y1="12.2703" x2="75.1734" y2="-3.31772" gradientUnits="userSpaceOnUse">
<stop stop-color="#00B0ED" stop-opacity="0"/>
<stop offset="1" stop-color="#00A2CE"/>
</linearGradient>
<linearGradient id="paint10_linear_4_73" x1="100" y1="17.0862" x2="100" y2="19.706" gradientUnits="userSpaceOnUse">
<stop stop-color="#00B0ED" stop-opacity="0"/>
<stop offset="1" stop-color="#00A2CE"/>
</linearGradient>
<linearGradient id="paint11_linear_4_73" x1="109.118" y1="18.8311" x2="99.3487" y2="9.06048" gradientUnits="userSpaceOnUse">
<stop stop-color="#00B0ED" stop-opacity="0"/>
<stop offset="1" stop-color="#00A2CE"/>
</linearGradient>
</defs>
</svg>
