<svg width="74" height="70" viewBox="0 0 74 70" fill="none" xmlns="http://www.w3.org/2000/svg">
<path d="M37.002 13.0364C33.408 13.0364 30.484 10.1123 30.484 6.51819C30.484 2.92406 33.408 0 37.002 0C40.5959 0 43.5199 2.92406 43.5199 6.51819C43.5199 10.1123 40.5959 13.0364 37.002 13.0364Z" fill="#4FDAE1"/>
<path d="M67.473 65.8293C66.3679 65.8293 65.249 65.5487 64.2251 64.9574C61.1126 63.1605 60.0423 59.1667 61.8394 56.0543C63.6363 52.942 67.6303 51.8721 70.743 53.6686C73.8554 55.4656 74.9256 59.4595 73.1287 62.5719C71.9229 64.6602 69.7272 65.8293 67.473 65.8293Z" fill="#16AAC8"/>
<path d="M42.2689 69.8561L41.002 56.7886L42.5848 56.2133C43.7973 55.7727 44.9542 55.1748 46.0162 54.4451L39.7642 50.8357L46.2821 39.5465L52.5341 43.1559C52.6351 41.8714 52.5744 40.5706 52.3499 39.3002L52.0568 37.6421L58.5597 34.6824L58.5593 34.6836L64.007 32.2053L64.6664 34.6901C66.5972 41.9644 65.593 49.5517 61.8388 56.054C58.0846 62.5564 52.016 67.2197 44.7507 69.1847L42.2689 69.8561Z" fill="#16AAC8"/>
<path d="M6.53163 65.8298C4.2773 65.8298 2.08191 64.661 0.876096 62.5722C0.00559045 61.0646 -0.225724 59.3081 0.224883 57.6265C0.675489 55.9449 1.75399 54.5394 3.26166 53.6688C6.37419 51.8719 10.3684 52.9421 12.1653 56.0546C13.9624 59.167 12.8921 63.161 9.77958 64.958C8.75584 65.549 7.63664 65.8298 6.53163 65.8298Z" fill="#4FDAE1"/>
<path d="M31.7348 69.8562L29.2531 69.1849C21.9877 67.2198 15.9191 62.5565 12.1649 56.0541C8.41073 49.5517 7.40653 41.9646 9.33729 34.6901L9.99676 32.2053L21.947 37.6418L21.6539 39.3002C21.4294 40.5707 21.3687 41.8715 21.4696 43.1561L27.7216 39.5465L34.2396 50.8357L27.9876 54.4452C29.0495 55.1749 30.2064 55.7728 31.4189 56.2134L33.002 56.7889L31.7348 69.8562Z" fill="#4FDAE1"/>
<path d="M43.4545 34.7622H30.4186V27.5533C29.298 28.0986 28.2341 28.7927 27.2367 29.6304L25.947 30.7134L15.2637 23.0823L17.086 21.2686C22.4206 15.9591 29.4934 13.035 37.0017 13.035C44.5101 13.035 51.5829 15.9591 56.9175 21.2686L58.7397 23.0823L48.0564 30.7134L46.7667 29.6304C45.7737 28.7965 44.6551 28.0881 43.4546 27.5275V34.7622H43.4545Z" fill="#4FDAE1"/>
</svg>
